<?xml version="1.0" encoding="iso-8859-1"?>
<!-- Uploaded to: SVG Repo, www.svgrepo.com, Generator: SVG Repo Mixer Tools -->
<svg fill="#000000" version="1.1" id="Layer_1" xmlns="http://www.w3.org/2000/svg" xmlns:xlink="http://www.w3.org/1999/xlink" 
	 viewBox="0 0 512 512" xml:space="preserve">
<g>
	<g>
		<path d="M506.908,464.13L404,361.222l-20,20l-56-56l-93.519,93.519l11.038,11.037L328,347.297l56,56.001l20-20l80.831,80.833
			H266.908L164,361.222l-55.999,56.001l-16.001-16L29.092,464.13H0v15.61h512v-15.61H506.908z M51.168,464.13L92,423.298l16,16
			l55.999-56.001l80.833,80.833H51.168z"/>
	</g>
</g>
<g>
	<g>
		<path d="M344.195,32.26c0,53.117-43.213,96.33-96.33,96.33s-96.331-43.213-96.331-96.33h-15.61
			c0,61.724,50.217,111.94,111.941,111.94c61.723,0,111.94-50.216,111.94-111.94H344.195z"/>
	</g>
</g>
<g>
	<g>
		<path d="M148,288.455c-2.313,0-4.195-1.883-4.195-4.195c0-10.921-8.884-19.805-19.805-19.805h-100v15.61h100
			c2.312,0,4.195,1.883,4.195,4.195c0,10.921,8.884,19.805,19.805,19.805h20v-15.61H148z"/>
	</g>
</g>
<g>
	<g>
		<rect x="184.195" y="288.26" width="80.13" height="15.61"/>
	</g>
</g>
<g>
	<g>
		<rect x="88.455" y="320.52" width="111.35" height="15.61"/>
	</g>
</g>
<g>
	<g>
		<rect x="216.455" y="320.52" width="15.61" height="15.61"/>
	</g>
</g>
<g>
	<g>
		<rect x="167.545" y="256" width="40.585" height="15.61"/>
	</g>
</g>
<g>
	<g>
		<path d="M368,200.455c-4.518,0-8.195-3.677-8.195-8.195c0-13.126-10.679-23.805-23.805-23.805h-88.001v15.61H336
			c4.518,0,8.195,3.677,8.195,8.195c0,13.126,10.679,23.805,23.805,23.805h88v-15.61H368z"/>
	</g>
</g>
<g>
	<g>
		<rect x="223.74" y="200.846" width="95.74" height="15.61"/>
	</g>
</g>
<g>
	<g>
		<rect x="295.545" y="232.065" width="88.455" height="15.61"/>
	</g>
</g>
<g>
	<g>
		<rect x="399.61" y="232.065" width="23.935" height="15.61"/>
	</g>
</g>
<g>
	<g>
		<rect x="375.675" y="176.911" width="23.935" height="15.61"/>
	</g>
</g>
</svg>