<?xml version="1.0" encoding="UTF-8"?>
<svg width="700pt" height="700pt" version="1.1" viewBox="0 0 700 700" xmlns="http://www.w3.org/2000/svg" xmlns:xlink="http://www.w3.org/1999/xlink">
 <defs>
  <symbol id="v" overflow="visible">
   <path d="m3.75-0.21875c-0.19922 0.09375-0.40234 0.16797-0.60938 0.21875-0.21094 0.050781-0.42969 0.078125-0.65625 0.078125-0.67969 0-1.2148-0.1875-1.6094-0.5625-0.39844-0.38281-0.59375-0.89844-0.59375-1.5469 0-0.65625 0.19531-1.1719 0.59375-1.5469 0.39453-0.38281 0.92969-0.57812 1.6094-0.57812 0.22656 0 0.44531 0.027344 0.65625 0.078125 0.20703 0.054687 0.41016 0.13281 0.60938 0.23438v0.84375c-0.19922-0.13281-0.39062-0.23438-0.57812-0.29688s-0.38672-0.09375-0.59375-0.09375c-0.375 0-0.67188 0.12109-0.89062 0.35938-0.21875 0.24219-0.32812 0.57422-0.32812 1 0 0.41797 0.10938 0.74609 0.32812 0.98438 0.21875 0.24219 0.51562 0.35938 0.89062 0.35938 0.20703 0 0.40625-0.03125 0.59375-0.09375s0.37891-0.15625 0.57812-0.28125z"/>
  </symbol>
  <symbol id="d" overflow="visible">
   <path d="m2.75-2.2188c-0.09375-0.039062-0.18359-0.070312-0.26562-0.09375-0.085937-0.019531-0.16797-0.03125-0.25-0.03125-0.25 0-0.44531 0.085938-0.57812 0.25-0.13672 0.15625-0.20312 0.38672-0.20312 0.6875v1.4062h-0.98438v-3.0625h0.98438v0.5c0.125-0.19531 0.26562-0.34375 0.42188-0.4375 0.16406-0.09375 0.36328-0.14062 0.59375-0.14062 0.03125 0 0.0625 0.007813 0.09375 0.015625 0.039062 0 0.097656 0.007812 0.17188 0.015625z"/>
  </symbol>
  <symbol id="a" overflow="visible">
   <path d="m3.5156-1.5312v0.26562h-2.2812c0.019531 0.23047 0.10156 0.40234 0.25 0.51562 0.14453 0.11719 0.34375 0.17188 0.59375 0.17188 0.20703 0 0.41406-0.023437 0.625-0.078125 0.21875-0.0625 0.44141-0.15625 0.67188-0.28125v0.75c-0.23047 0.09375-0.46094 0.16406-0.6875 0.20312-0.23047 0.039062-0.46484 0.0625-0.70312 0.0625-0.55469 0-0.98438-0.14062-1.2969-0.42188-0.30469-0.28125-0.45312-0.67578-0.45312-1.1875 0-0.5 0.14844-0.89062 0.45312-1.1719 0.30078-0.28906 0.71875-0.4375 1.25-0.4375 0.47656 0 0.85938 0.14844 1.1406 0.4375 0.28906 0.29297 0.4375 0.68359 0.4375 1.1719zm-1-0.32812c0-0.1875-0.058594-0.33594-0.17188-0.45312-0.10547-0.11328-0.24219-0.17188-0.40625-0.17188-0.19922 0-0.35547 0.058594-0.46875 0.17188-0.11719 0.10547-0.1875 0.25781-0.21875 0.45312z"/>
  </symbol>
  <symbol id="e" overflow="visible">
   <path d="m1.8438-1.375c-0.21094 0-0.36719 0.039062-0.46875 0.10938-0.10547 0.0625-0.15625 0.16406-0.15625 0.29688 0 0.125 0.039062 0.22656 0.125 0.29688 0.082031 0.0625 0.20312 0.09375 0.35938 0.09375 0.17578 0 0.32812-0.0625 0.45312-0.1875 0.125-0.13281 0.1875-0.30078 0.1875-0.5v-0.10938zm1.4844-0.375v1.75h-0.98438v-0.45312c-0.125 0.1875-0.27344 0.32422-0.4375 0.40625-0.16797 0.082031-0.36719 0.125-0.59375 0.125-0.32422 0-0.58594-0.085938-0.78125-0.26562-0.19922-0.1875-0.29688-0.42969-0.29688-0.73438 0-0.35156 0.125-0.61328 0.375-0.78125 0.25-0.16406 0.63281-0.25 1.1562-0.25h0.57812v-0.078125c0-0.15625-0.0625-0.26953-0.1875-0.34375-0.11719-0.070312-0.30469-0.10938-0.5625-0.10938-0.21094 0-0.40625 0.023437-0.59375 0.0625-0.17969 0.042969-0.33984 0.10547-0.48438 0.1875v-0.75c0.20703-0.039063 0.41406-0.078125 0.625-0.10938 0.20703-0.03125 0.41406-0.046875 0.625-0.046875 0.55078 0 0.94531 0.10938 1.1875 0.32812 0.25 0.21875 0.375 0.57422 0.375 1.0625z"/>
  </symbol>
  <symbol id="c" overflow="visible">
   <path d="m1.5312-3.9219v0.85938h1.0156v0.70312h-1.0156v1.2969c0 0.14844 0.023438 0.24609 0.078125 0.29688 0.0625 0.042969 0.17578 0.0625 0.34375 0.0625h0.5v0.70312h-0.82812c-0.38672 0-0.66406-0.078125-0.82812-0.23438-0.15625-0.16406-0.23438-0.44141-0.23438-0.82812v-1.2969h-0.48438v-0.70312h0.48438v-0.85938z"/>
  </symbol>
  <symbol id="k" overflow="visible">
   <path d="m2.5469-2.6094v-1.6406h0.98438v4.25h-0.98438v-0.4375c-0.13672 0.17969-0.28906 0.30859-0.45312 0.39062-0.15625 0.082031-0.33984 0.125-0.54688 0.125-0.375 0-0.6875-0.14453-0.9375-0.4375-0.24219-0.30078-0.35938-0.69141-0.35938-1.1719 0-0.46875 0.11719-0.85156 0.35938-1.1562 0.25-0.30078 0.5625-0.45312 0.9375-0.45312 0.20703 0 0.39062 0.046875 0.54688 0.14062 0.16406 0.085938 0.31641 0.21484 0.45312 0.39062zm-0.64062 1.9844c0.20703 0 0.36328-0.078125 0.46875-0.23438 0.11328-0.15625 0.17188-0.37891 0.17188-0.67188 0-0.28906-0.058594-0.50781-0.17188-0.65625-0.10547-0.15625-0.26172-0.23438-0.46875-0.23438-0.21094 0-0.37109 0.078125-0.48438 0.23438-0.10547 0.14844-0.15625 0.36719-0.15625 0.65625 0 0.29297 0.050781 0.51562 0.15625 0.67188 0.11328 0.15625 0.27344 0.23438 0.48438 0.23438z"/>
  </symbol>
  <symbol id="j" overflow="visible">
   <path d="m2.0938-0.625c0.20703 0 0.36719-0.078125 0.48438-0.23438 0.11328-0.15625 0.17188-0.37891 0.17188-0.67188 0-0.28906-0.058594-0.50781-0.17188-0.65625-0.11719-0.15625-0.27734-0.23438-0.48438-0.23438-0.21094 0-0.37109 0.078125-0.48438 0.23438-0.10547 0.14844-0.15625 0.36719-0.15625 0.65625 0 0.29297 0.050781 0.51562 0.15625 0.67188 0.11328 0.15625 0.27344 0.23438 0.48438 0.23438zm-0.64062-1.9844c0.13281-0.17578 0.28125-0.30469 0.4375-0.39062 0.16406-0.09375 0.35156-0.14062 0.5625-0.14062 0.38281 0 0.69531 0.15234 0.9375 0.45312 0.23828 0.30469 0.35938 0.6875 0.35938 1.1562 0 0.48047-0.12109 0.87109-0.35938 1.1719-0.24219 0.29297-0.55469 0.4375-0.9375 0.4375-0.21094 0-0.39844-0.042969-0.5625-0.125-0.15625-0.082031-0.30469-0.21094-0.4375-0.39062v0.4375h-0.98438v-4.25h0.98438z"/>
  </symbol>
  <symbol id="i" overflow="visible">
   <path d="m0.0625-3.0625h0.98438l0.82812 2.0781 0.6875-2.0781h0.98438l-1.2812 3.3594c-0.13672 0.33203-0.29297 0.56641-0.46875 0.70312-0.16797 0.13281-0.39062 0.20312-0.67188 0.20312h-0.5625v-0.64062h0.29688c0.16406 0 0.28516-0.027344 0.35938-0.078125 0.082031-0.054687 0.14453-0.14844 0.1875-0.28125l0.03125-0.078125z"/>
  </symbol>
  <symbol id="h" overflow="visible">
   <path d="m0.51562-4.0781h1.3438l0.92188 2.1875 0.9375-2.1875h1.3281v4.0781h-0.98438v-2.9844l-0.95312 2.2031h-0.65625l-0.9375-2.2031v2.9844h-1z"/>
  </symbol>
  <symbol id="u" overflow="visible">
   <path d="m1.25-1.5625-1.1094-1.5h1.0312l0.625 0.90625 0.64062-0.90625h1.0312l-1.1094 1.4844 1.1562 1.5781h-1.0312l-0.6875-0.96875-0.67188 0.96875h-1.0469z"/>
  </symbol>
  <symbol id="t" overflow="visible">
   <path d="m0.46875-3.0625h0.98438v3.0625h-0.98438zm0-1.1875h0.98438v0.79688h-0.98438z"/>
  </symbol>
  <symbol id="g" overflow="visible">
   <path d="m2.9375-2.9688v0.79688c-0.125-0.082031-0.25781-0.14453-0.39062-0.1875-0.13672-0.050781-0.27734-0.078125-0.42188-0.078125-0.27344 0-0.48438 0.085938-0.64062 0.25-0.14844 0.15625-0.21875 0.375-0.21875 0.65625 0 0.29297 0.070313 0.51562 0.21875 0.67188 0.15625 0.15625 0.36719 0.23438 0.64062 0.23438 0.15625 0 0.30078-0.019531 0.4375-0.0625 0.13281-0.039062 0.25781-0.10938 0.375-0.20312v0.79688c-0.14844 0.0625-0.30469 0.10156-0.46875 0.125-0.15625 0.03125-0.3125 0.046875-0.46875 0.046875-0.55469 0-0.98438-0.14062-1.2969-0.42188s-0.46875-0.67578-0.46875-1.1875c0-0.5 0.15625-0.89062 0.46875-1.1719 0.3125-0.28906 0.74219-0.4375 1.2969-0.4375 0.16406 0 0.32031 0.015625 0.46875 0.046875 0.15625 0.03125 0.3125 0.074219 0.46875 0.125z"/>
  </symbol>
  <symbol id="b" overflow="visible">
   <path d="m1.9219-2.4375c-0.21875 0-0.38672 0.078125-0.5 0.23438-0.10547 0.15625-0.15625 0.38281-0.15625 0.67188 0 0.29297 0.050781 0.51562 0.15625 0.67188 0.11328 0.15625 0.28125 0.23438 0.5 0.23438s0.37891-0.078125 0.48438-0.23438c0.11328-0.15625 0.17188-0.37891 0.17188-0.67188 0-0.28906-0.058594-0.51562-0.17188-0.67188-0.10547-0.15625-0.26562-0.23438-0.48438-0.23438zm0-0.70312c0.53125 0 0.94141 0.14844 1.2344 0.4375 0.30078 0.28125 0.45312 0.67188 0.45312 1.1719 0 0.51172-0.15234 0.90625-0.45312 1.1875-0.29297 0.28125-0.70312 0.42188-1.2344 0.42188-0.52344 0-0.93359-0.14062-1.2344-0.42188-0.30469-0.28125-0.45312-0.67578-0.45312-1.1875 0-0.5 0.14844-0.89062 0.45312-1.1719 0.30078-0.28906 0.71094-0.4375 1.2344-0.4375z"/>
  </symbol>
  <symbol id="f" overflow="visible">
   <path d="m3.5469-1.8594v1.8594h-0.98438v-1.4219c0-0.26953-0.007812-0.45312-0.015625-0.54688-0.011719-0.10156-0.03125-0.17578-0.0625-0.21875-0.042969-0.0625-0.09375-0.10938-0.15625-0.14062-0.0625-0.039063-0.13672-0.0625-0.21875-0.0625-0.21094 0-0.37109 0.078125-0.48438 0.23438-0.11719 0.15625-0.17188 0.375-0.17188 0.65625v1.5h-0.98438v-3.0625h0.98438v0.45312c0.14453-0.17578 0.30078-0.30469 0.46875-0.39062 0.16406-0.09375 0.34766-0.14062 0.54688-0.14062 0.35156 0 0.61719 0.10938 0.79688 0.32812 0.1875 0.21875 0.28125 0.53906 0.28125 0.95312z"/>
  </symbol>
  <symbol id="s" overflow="visible">
   <path d="m2.8594-2.9688v0.75c-0.21094-0.09375-0.41406-0.16016-0.60938-0.20312-0.1875-0.039063-0.37109-0.0625-0.54688-0.0625-0.1875 0-0.32812 0.027344-0.42188 0.078125-0.085938 0.042969-0.125 0.10938-0.125 0.20312 0 0.085937 0.03125 0.14844 0.09375 0.1875 0.070312 0.042969 0.19531 0.074219 0.375 0.09375l0.17188 0.015625c0.5 0.0625 0.83203 0.16797 1 0.3125 0.17578 0.14844 0.26562 0.375 0.26562 0.6875 0 0.33594-0.12109 0.58594-0.35938 0.75-0.24219 0.15625-0.60156 0.23438-1.0781 0.23438-0.19922 0-0.40625-0.015625-0.625-0.046875s-0.4375-0.078125-0.65625-0.14062v-0.75c0.1875 0.09375 0.38281 0.16797 0.59375 0.21875 0.20703 0.042969 0.41406 0.0625 0.625 0.0625 0.1875 0 0.32812-0.023437 0.42188-0.078125 0.10156-0.050781 0.15625-0.12891 0.15625-0.23438 0-0.082031-0.039063-0.14453-0.10938-0.1875-0.0625-0.039063-0.19531-0.078125-0.39062-0.10938l-0.17188-0.015625c-0.4375-0.050781-0.74609-0.14844-0.92188-0.29688-0.16797-0.14453-0.25-0.36719-0.25-0.67188 0-0.32031 0.10938-0.5625 0.32812-0.71875 0.21875-0.16406 0.55469-0.25 1.0156-0.25 0.1875 0 0.37891 0.015625 0.57812 0.046875 0.19531 0.03125 0.41016 0.074219 0.64062 0.125z"/>
  </symbol>
  <symbol id="r" overflow="visible">
   <path d="m2.4844-4.25v0.64062h-0.54688c-0.13672 0-0.23047 0.027344-0.28125 0.078125-0.054688 0.054688-0.078125 0.14062-0.078125 0.26562v0.20312h0.82812v0.70312h-0.82812v2.3594h-0.98438v-2.3594h-0.48438v-0.70312h0.48438v-0.20312c0-0.33203 0.09375-0.57812 0.28125-0.73438 0.1875-0.16406 0.47266-0.25 0.85938-0.25z"/>
  </symbol>
  <symbol id="q" overflow="visible">
   <path d="m3.3125-2.5469c0.11328-0.1875 0.25391-0.33203 0.42188-0.4375 0.17578-0.10156 0.36719-0.15625 0.57812-0.15625 0.34375 0 0.60938 0.10938 0.79688 0.32812s0.28125 0.53906 0.28125 0.95312v1.8594h-0.98438v-1.5938-0.0625-0.125c0-0.21875-0.03125-0.375-0.09375-0.46875s-0.16797-0.14062-0.3125-0.14062c-0.1875 0-0.33594 0.078125-0.4375 0.23438-0.09375 0.14844-0.14062 0.36719-0.14062 0.65625v1.5h-0.98438v-1.5938c0-0.34375-0.03125-0.5625-0.09375-0.65625-0.054688-0.09375-0.15625-0.14062-0.3125-0.14062-0.1875 0-0.33594 0.078125-0.4375 0.23438-0.09375 0.14844-0.14062 0.36719-0.14062 0.65625v1.5h-0.98438v-3.0625h0.98438v0.45312c0.11328-0.17578 0.25-0.30469 0.40625-0.39062 0.15625-0.09375 0.32812-0.14062 0.51562-0.14062 0.20703 0 0.39062 0.054687 0.54688 0.15625 0.16406 0.10547 0.29688 0.25 0.39062 0.4375z"/>
  </symbol>
  <symbol id="p" overflow="visible">
   <path d="m3.5469-1.8594v1.8594h-0.98438v-1.4219c0-0.26953-0.007812-0.45312-0.015625-0.54688-0.011719-0.10156-0.03125-0.17578-0.0625-0.21875-0.042969-0.0625-0.09375-0.10938-0.15625-0.14062-0.0625-0.039063-0.13672-0.0625-0.21875-0.0625-0.21094 0-0.37109 0.078125-0.48438 0.23438-0.11719 0.15625-0.17188 0.375-0.17188 0.65625v1.5h-0.98438v-4.25h0.98438v1.6406c0.14453-0.17578 0.30078-0.30469 0.46875-0.39062 0.16406-0.09375 0.34766-0.14062 0.54688-0.14062 0.35156 0 0.61719 0.10938 0.79688 0.32812 0.1875 0.21875 0.28125 0.53906 0.28125 0.95312z"/>
  </symbol>
  <symbol id="o" overflow="visible">
   <path d="m0.51562-4.0781h1.1719l1.4844 2.7969v-2.7969h1v4.0781h-1.1719l-1.4844-2.7969v2.7969h-1z"/>
  </symbol>
  <symbol id="n" overflow="visible">
   <path d="m0.4375-1.1875v-1.875h0.98438v0.3125 0.625 0.5c0 0.24219 0.003906 0.41797 0.015625 0.53125 0.007812 0.10547 0.03125 0.18359 0.0625 0.23438 0.039062 0.0625 0.09375 0.11719 0.15625 0.15625 0.0625 0.03125 0.13281 0.046875 0.21875 0.046875 0.20703 0 0.36719-0.078125 0.48438-0.23438 0.11328-0.15625 0.17188-0.375 0.17188-0.65625v-1.5156h0.98438v3.0625h-0.98438v-0.4375c-0.14844 0.17969-0.30469 0.30859-0.46875 0.39062-0.16797 0.082031-0.35156 0.125-0.54688 0.125-0.35547 0-0.625-0.10938-0.8125-0.32812-0.17969-0.21875-0.26562-0.53125-0.26562-0.9375z"/>
  </symbol>
  <symbol id="m" overflow="visible">
   <path d="m0.51562-4.0781h1.75c0.50781 0 0.90625 0.11719 1.1875 0.34375 0.28125 0.23047 0.42188 0.55859 0.42188 0.98438 0 0.42969-0.14062 0.75781-0.42188 0.98438-0.28125 0.23047-0.67969 0.34375-1.1875 0.34375h-0.70312v1.4219h-1.0469zm1.0469 0.76562v1.1406h0.57812c0.20703 0 0.36328-0.046875 0.46875-0.14062 0.11328-0.10156 0.17188-0.25 0.17188-0.4375 0-0.17578-0.058594-0.3125-0.17188-0.40625-0.10547-0.10156-0.26172-0.15625-0.46875-0.15625z"/>
  </symbol>
  <symbol id="l" overflow="visible">
   <path d="m0.46875-3.0625h0.98438v3.0156c0 0.40625-0.10156 0.71094-0.29688 0.92188-0.19922 0.21875-0.48438 0.32812-0.85938 0.32812h-0.48438v-0.64062h0.17188c0.1875 0 0.3125-0.042969 0.375-0.125 0.070313-0.085938 0.10938-0.24609 0.10938-0.48438zm0-1.1875h0.98438v0.79688h-0.98438z"/>
  </symbol>
 </defs>
 <g>
  <path d="m345.57 88.051v206.9c0 2.4336 1.9727 4.4102 4.4102 4.4102s4.4102-1.9766 4.4102-4.4102v-206.9c-0.074219-5.7227-8.7148-5.8594-8.8203 0z"/>
  <path d="m90.258 476.29h526.06c5.3906-0.035157 6.1953-8.5742 0-8.8203h-103.2c-5.5391-0.011718-10.172-4.1992-10.742-9.707-19.508-183.85-285.35-183.72-304.8 0-0.56641 5.5078-5.2031 9.6992-10.742 9.707h-96.582c-5.5742 0.066406-6.0195 8.6406 0 8.8203z"/>
  <path d="m475.09 351.18c1.1719 0.003906 2.293-0.46094 3.1211-1.293l132.08-132.08c1.6836-1.7305 1.6602-4.4883-0.042969-6.1914-1.707-1.707-4.4648-1.7266-6.1953-0.046876l-132.08 132.09c-1.2305 1.2695-1.5898 3.1523-0.91016 4.7891 0.67578 1.6328 2.2578 2.7109 4.0273 2.7383z"/>
  <path d="m224.88 351.18c3.8516 0.097656 6.2031-4.8633 3.3125-7.6172l-42.777-42.766c-0.29687-0.29297-0.63672-0.53906-1.0078-0.73047-24.688-24.691-59.695-59.695-84.461-84.461-4.0586-4.0312-10.32 2.1172-6.2383 6.2383l128.05 128.04c0.82422 0.83203 1.9453 1.2969 3.1172 1.2969z"/>
  <path d="m282.28 312.83c1.4688-0.011719 2.8359-0.75 3.6523-1.9727 0.8125-1.2227 0.97266-2.7656 0.42187-4.1289l-53.105-128.2c-0.44141-1.0859-1.3008-1.9492-2.3828-2.3984-1.0859-0.44922-2.3008-0.45312-3.3867-0.003906-1.082 0.44922-1.9414 1.3125-2.3867 2.3945-0.44922 1.0859-0.44531 2.3047 0.007812 3.3867l53.102 128.2 0.003906-0.003906c0.67969 1.6523 2.2891 2.7266 4.0742 2.7266z"/>
  <path d="m614.63 357.48-102.88 42.613c-4.4102 1.7461-3.0156 8.582 1.6914 8.4844 2.9297-0.089843 102.05-42.32 104.56-42.949 5.2812-2.2773 2.0469-10.285-3.3789-8.1484z"/>
  <path d="m416 312.5c2.25 0.92969 4.8281-0.14062 5.7617-2.3867l53.102-128.2h0.003906c0.45312-1.082 0.45703-2.3008 0.007812-3.3828-0.44531-1.0859-1.3047-1.9492-2.3867-2.3984-1.0859-0.44531-2.3047-0.44531-3.3867 0.003906-1.082 0.45312-1.9414 1.3164-2.3828 2.3984l-53.105 128.2c-0.93359 2.2539 0.13672 4.832 2.3867 5.7656z"/>
  <path d="m86.246 367.41 98.59 40.836c0.53516 0.22266 1.1055 0.33984 1.6836 0.33594 4.668 0.085938 6.1406-6.7188 1.6875-8.4844l-98.586-40.836c-5.3516-2.125-8.7227 5.8242-3.375 8.1484z"/>
  <path d="m398.3 234.93c-2.3867-0.48438-4.7148 1.0547-5.2031 3.4414l-12.098 59.27h0.003906c-0.23438 1.1445-0.003906 2.3359 0.64062 3.3125s1.6523 1.6562 2.7969 1.8906c2.3867 0.48828 4.7188-1.0508 5.2031-3.4375l12.098-59.27v-0.003907c0.23437-1.1445 0.003906-2.3359-0.64063-3.3125-0.64844-0.97656-1.6523-1.6562-2.8008-1.8906z"/>
  <path d="m402.75 206.14c4.8945 2.793 9.1719-4.418 4.375-7.3711-4.9023-2.793-9.1797 4.4141-4.375 7.3711z"/>
  <path d="m414.51 175.79c2.793-4.8945-4.418-9.1719-7.3711-4.375-2.793 4.8945 4.4141 9.1719 7.3711 4.375z"/>
  <path d="m118.52 419.85c-5.6758-1.0625-7.4453 7.3789-1.7656 8.6406l59.27 12.098c5.6523 1.0781 7.4609-7.3711 1.7656-8.6406z"/>
  <path d="m80.262 412.41c-5.5703 0.83984-4.4609 9.1484 1.1328 8.4961 5.5703-0.84375 4.4609-9.1484-1.1328-8.4961z"/>
  <path d="m497.36 378.61c0.86328 0 1.707-0.25391 2.4258-0.73047l50.465-33.355h0.003906c2.0312-1.3398 2.5898-4.0781 1.2461-6.1094-1.3438-2.0352-4.0781-2.5938-6.1133-1.25l-50.461 33.355c-3.6523 2.2305-1.7695 8.2617 2.4336 8.0898z"/>
  <path d="m578.1 315.98c-5.4336 1.4844-3.3594 9.6055 2.1172 8.3047 5.4375-1.4844 3.3633-9.6055-2.1172-8.3047z"/>
  <path d="m602.67 299.75c-5.4336 1.4844-3.3594 9.6055 2.1211 8.3047 5.4297-1.4844 3.3555-9.6055-2.1211-8.3047z"/>
  <path d="m252.59 328.64c1.6133-0.023437 3.0898-0.91797 3.8555-2.3398 0.76172-1.4219 0.69531-3.1484-0.17969-4.5039l-33.355-50.465c-3.2617-4.7695-10.48-0.042969-7.3594 4.8633l33.352 50.465h0.003906c0.81641 1.2383 2.2031 1.9805 3.6836 1.9805z"/>
  <path d="m201.12 239.02c-4.5352-3.3438-9.6211 3.3125-5.207 6.8125 4.5352 3.3398 9.6211-3.3164 5.207-6.8125z"/>
  <path d="m178.88 215.27c-3.3438 4.5352 3.3125 9.6211 6.8086 5.207 3.3477-4.5352-3.3125-9.6289-6.8086-5.207z"/>
  <path d="m310.43 299.38c1.2656 5.668 9.707 3.9336 8.6445-1.7578l-12.066-59.277c-1.2422-5.6406-9.707-3.957-8.6445 1.7617z"/>
  <path d="m294.62 206.66c5.6016 0.65234 6.7109-7.6523 1.1406-8.4961-5.5977-0.65234-6.7109 7.6562-1.1406 8.4961z"/>
  <path d="m293.56 174.13c0.65234-5.6016-7.6523-6.7109-8.4961-1.1406-0.65625 5.5977 7.6523 6.7109 8.4961 1.1406z"/>
  <path d="m581.48 419.98-59.277 12.066c-5.668 1.2539-3.9219 9.7188 1.7578 8.6445l59.277-12.066c5.6445-1.2422 3.957-9.7109-1.7578-8.6445z"/>
  <path d="m618.6 421.05c5.6016 0.65234 6.707-7.6523 1.1406-8.4961-5.5977-0.65234-6.7109 7.6523-1.1406 8.4961z"/>
  <path d="m445.04 327.96c2.0312 1.3438 4.7695 0.78516 6.1133-1.2422l33.383-50.445v-0.003906c1.2969-2.0312 0.72656-4.7266-1.2812-6.0547-2.0117-1.332-4.7148-0.80078-6.0781 1.1875l-33.383 50.445h0.003907c-1.3477 2.0312-0.78906 4.7695 1.2422 6.1133z"/>
  <path d="m504.18 245.92c4.418-3.4961-0.67188-10.156-5.2031-6.8125-4.418 3.4961 0.66797 10.156 5.2031 6.8125z"/>
  <path d="m520.43 221.36c4.418-3.4961-0.66797-10.156-5.2031-6.8125-4.4141 3.4961 0.67188 10.156 5.2031 6.8125z"/>
  <path d="m154.65 337.06c-4.875-3.1094-9.6602 4.0664-4.8672 7.3555l50.445 33.383c4.7656 3.2031 9.6719-4.1953 4.8672-7.3555z"/>
  <path d="m116.74 318.95c-1.3008 5.4805 6.8164 7.5547 8.3047 2.1289 1.3047-5.4844-6.8164-7.5625-8.3047-2.1289z"/>
  <path d="m95.273 307.91c5.4805 1.3008 7.5586-6.8164 2.1289-8.3047-5.4844-1.3008-7.5625 6.8164-2.1289 8.3047z"/>
  <use x="70" y="576.800781" xlink:href="#v"/>
  <use x="74.109375" y="576.800781" xlink:href="#d"/>
  <use x="76.871094" y="576.800781" xlink:href="#a"/>
  <use x="80.667969" y="576.800781" xlink:href="#e"/>
  <use x="84.449219" y="576.800781" xlink:href="#c"/>
  <use x="87.125" y="576.800781" xlink:href="#a"/>
  <use x="90.921875" y="576.800781" xlink:href="#k"/>
  <use x="96.882812" y="576.800781" xlink:href="#j"/>
  <use x="100.890625" y="576.800781" xlink:href="#i"/>
  <use x="106.488281" y="576.800781" xlink:href="#h"/>
  <use x="112.0625" y="576.800781" xlink:href="#e"/>
  <use x="115.839844" y="576.800781" xlink:href="#u"/>
  <use x="119.453125" y="576.800781" xlink:href="#t"/>
  <use x="121.375" y="576.800781" xlink:href="#g"/>
  <use x="124.691406" y="576.800781" xlink:href="#b"/>
  <use x="128.539062" y="576.800781" xlink:href="#f"/>
  <use x="132.527344" y="576.800781" xlink:href="#s"/>
  <use x="70" y="582.398437" xlink:href="#r"/>
  <use x="72.4375" y="582.398437" xlink:href="#d"/>
  <use x="75.199219" y="582.398437" xlink:href="#b"/>
  <use x="79.046875" y="582.398437" xlink:href="#q"/>
  <use x="86.828125" y="582.398437" xlink:href="#c"/>
  <use x="89.507812" y="582.398437" xlink:href="#p"/>
  <use x="93.492188" y="582.398437" xlink:href="#a"/>
  <use x="99.242188" y="582.398437" xlink:href="#o"/>
  <use x="103.929688" y="582.398437" xlink:href="#b"/>
  <use x="107.773438" y="582.398437" xlink:href="#n"/>
  <use x="111.761719" y="582.398437" xlink:href="#f"/>
  <use x="117.699219" y="582.398437" xlink:href="#m"/>
  <use x="121.800781" y="582.398437" xlink:href="#d"/>
  <use x="124.5625" y="582.398437" xlink:href="#b"/>
  <use x="128.410156" y="582.398437" xlink:href="#l"/>
  <use x="130.332031" y="582.398437" xlink:href="#a"/>
  <use x="134.128906" y="582.398437" xlink:href="#g"/>
  <use x="137.449219" y="582.398437" xlink:href="#c"/>
 </g>
</svg>
